<svg width="83" height="79" viewBox="0 0 83 79" fill="none" xmlns="http://www.w3.org/2000/svg">
<mask id="mask0_2_40" style="mask-type:luminance" maskUnits="userSpaceOnUse" x="57" y="42" width="25" height="11">
<path d="M57.9015 42.2344C65.1231 42.2344 73.2326 45.3624 81.3522 51.2803C81.7113 51.5412 81.7808 52.0322 81.5097 52.377C81.3504 52.5803 81.1064 52.6873 80.8609 52.6873C80.6898 52.6873 80.5188 52.6356 80.3712 52.5287C72.5364 46.8184 64.7674 43.8 57.9015 43.8C57.4524 43.8 57.0883 43.4496 57.0883 43.0171C57.0883 42.5848 57.4524 42.2344 57.9015 42.2344Z" fill="white"/>
</mask>
<g mask="url(#mask0_2_40)">
<path d="M57.0883 42.2344H81.6749V52.6873H57.0883V42.2344Z" fill="white"/>
</g>
<mask id="mask1_2_40" style="mask-type:luminance" maskUnits="userSpaceOnUse" x="40" y="42" width="42" height="27">
<path d="M41.7012 42.2344C48.591 42.2344 56.0092 44.9429 63.7492 50.2853C69.9801 54.5851 76.2871 60.5919 81.5098 67.1988C81.7809 67.5427 81.7114 68.0339 81.3539 68.2959C81.2082 68.4036 81.0337 68.4557 80.8626 68.4557C80.617 68.4557 80.3747 68.3493 80.2154 68.1468C70.9117 56.377 55.9092 43.8 41.7012 43.8C41.2524 43.8 40.8882 43.4496 40.8882 43.0171C40.8882 42.5848 41.2524 42.2344 41.7012 42.2344Z" fill="white"/>
</mask>
<g mask="url(#mask1_2_40)">
<path d="M40.8882 42.2344H81.675V68.4557H40.8882V42.2344Z" fill="white"/>
</g>
<mask id="mask2_2_40" style="mask-type:luminance" maskUnits="userSpaceOnUse" x="0" y="42" width="73" height="37">
<path d="M25.8021 42.2344C45.8308 42.2344 66.0664 65.2149 72.4495 77.5186C72.6493 77.9053 72.4867 78.3755 72.0853 78.5687C71.9683 78.6248 71.8448 78.6516 71.7227 78.6516C71.4245 78.6516 71.1367 78.4927 70.9943 78.2183C68.0804 72.6004 61.7973 63.8688 52.9036 56.2099C46.3306 50.5486 36.2916 43.8 25.8021 43.8H0.955478C0.506555 43.8 0.142334 43.4496 0.142334 43.0171C0.142334 42.5848 0.506555 42.2344 0.955478 42.2344H25.8021Z" fill="white"/>
</mask>
<g mask="url(#mask2_2_40)">
<path d="M0.142334 42.2344H72.5349V78.6516H0.142334V42.2344Z" fill="white"/>
</g>
<mask id="mask3_2_40" style="mask-type:luminance" maskUnits="userSpaceOnUse" x="9" y="42" width="48" height="37">
<path d="M9.99833 42.2344C30.027 42.2344 50.2626 65.2149 56.6457 77.5184C56.8473 77.9053 56.6846 78.3755 56.2831 78.5685C56.1663 78.6248 56.0408 78.6514 55.9189 78.6514C55.6208 78.6514 55.3345 78.4927 55.1922 78.2183C52.2767 72.6004 45.9936 63.8688 37.1014 56.2099C30.5268 50.5486 20.4895 43.8 9.99833 43.8C9.54942 43.8 9.18689 43.4496 9.18689 43.0171C9.18689 42.5848 9.54942 42.2344 9.99833 42.2344Z" fill="white"/>
</mask>
<g mask="url(#mask3_2_40)">
<path d="M9.18689 42.2344H56.7323V78.6514H9.18689V42.2344Z" fill="white"/>
</g>
<mask id="mask4_2_40" style="mask-type:luminance" maskUnits="userSpaceOnUse" x="9" y="42" width="48" height="37">
<path d="M9.99833 42.2344C30.027 42.2344 50.2626 65.2149 56.6457 77.5184C56.8473 77.9053 56.6846 78.3755 56.2831 78.5685C56.1663 78.6248 56.0408 78.6514 55.9189 78.6514C55.6208 78.6514 55.3345 78.4927 55.1922 78.2183C52.2767 72.6004 45.9936 63.8688 37.1014 56.2099C30.5268 50.5486 20.4895 43.8 9.99833 43.8C9.54942 43.8 9.18689 43.4496 9.18689 43.0171C9.18689 42.5848 9.54942 42.2344 9.99833 42.2344Z" fill="white"/>
</mask>
<g mask="url(#mask4_2_40)">
<path d="M9.18689 42.2344H56.7323V78.6514H9.18689V42.2344Z" fill="white"/>
</g>
<mask id="mask5_2_40" style="mask-type:luminance" maskUnits="userSpaceOnUse" x="0" y="43" width="41" height="36">
<path d="M1.16092 43.1419C10.9153 45.5824 19.6142 52.3878 25.1927 57.6672C31.6588 63.7875 37.4745 71.2084 40.7475 77.5183C40.949 77.9052 40.7864 78.3753 40.385 78.5684C40.2679 78.6247 40.1445 78.6512 40.0208 78.6512C39.7226 78.6512 39.4363 78.4926 39.294 78.2181C33.5427 67.1332 17.3154 48.801 0.750962 44.6573C0.317287 44.5487 0.0564023 44.1213 0.16821 43.7028C0.28171 43.2843 0.725552 43.0332 1.16092 43.1419Z" fill="white"/>
</mask>
<g mask="url(#mask5_2_40)">
<path d="M0.142334 43.1166H40.834V78.6512H0.142334V43.1166Z" fill="white"/>
</g>
<mask id="mask6_2_40" style="mask-type:luminance" maskUnits="userSpaceOnUse" x="0" y="50" width="26" height="29">
<path d="M1.44261 51.0583C12.2252 58.8255 21.0156 69.9442 24.9459 77.5183C25.1457 77.905 24.9832 78.3751 24.5817 78.5684C24.4647 78.6245 24.341 78.6512 24.2192 78.6512C23.921 78.6512 23.6329 78.4924 23.4906 78.2179C19.6469 70.8091 11.0377 59.9258 0.468535 52.3118C0.109397 52.0529 0.0365525 51.5623 0.305906 51.2161C0.573567 50.87 1.08348 50.7993 1.44261 51.0583Z" fill="white"/>
</mask>
<g mask="url(#mask6_2_40)">
<path d="M0.143311 50.9022H25.0314V78.6513H0.143311V50.9022Z" fill="white"/>
</g>
<mask id="mask7_2_40" style="mask-type:luminance" maskUnits="userSpaceOnUse" x="2" y="17" width="20" height="21">
<path d="M6.02497 22.078C6.33499 19.1807 9.02514 17.0734 12.0338 17.371C15.0441 17.6689 17.2328 20.259 16.9228 23.1563C16.8737 23.6244 16.7602 24.0715 16.5942 24.4914C19.6316 25.4141 21.6814 28.2888 21.3425 31.458C20.9562 35.0833 17.5903 37.72 13.8244 37.3475C12.3031 37.197 10.9496 36.5778 9.90095 35.6543C9.40121 35.7284 8.88282 35.7432 8.3543 35.6913C5.02549 35.3618 2.60298 32.4957 2.94519 29.2897C3.1705 27.1776 4.53929 25.4455 6.39936 24.603C6.0724 23.8286 5.93011 22.9679 6.02497 22.078ZM17.143 30.4105C16.7093 30.3003 16.2638 30.5501 16.1503 30.9682C15.947 31.7116 15.2457 32.2309 14.4461 32.2309C14.1615 32.2309 13.8888 32.1677 13.638 32.0432C13.2399 31.8447 12.7487 31.9954 12.5437 32.3796C12.337 32.7639 12.4929 33.2361 12.8927 33.4344C13.3687 33.6714 13.9057 33.7966 14.4461 33.7966C15.9826 33.7966 17.3311 32.7977 17.7224 31.3672C17.8376 30.9491 17.5784 30.5209 17.143 30.4105Z" fill="white"/>
</mask>
<g mask="url(#mask7_2_40)">
<path d="M2.91296 17.343H21.3791V37.3825H2.91296V17.343Z" fill="white"/>
</g>
<mask id="mask8_2_40" style="mask-type:luminance" maskUnits="userSpaceOnUse" x="12" y="36" width="3" height="8">
<path d="M13.7375 36.594C14.1881 36.594 14.5506 36.9446 14.5506 37.3769V43.0171C14.5506 43.4496 14.1881 43.8 13.7375 43.8C13.2885 43.8 12.9243 43.4496 12.9243 43.0171V37.3769C12.9243 36.9446 13.2885 36.594 13.7375 36.594Z" fill="white"/>
</mask>
<g mask="url(#mask8_2_40)">
<path d="M12.9243 36.594H14.5506V43.8H12.9243V36.594Z" fill="white"/>
</g>
<mask id="mask9_2_40" style="mask-type:luminance" maskUnits="userSpaceOnUse" x="8" y="34" width="3" height="10">
<path d="M9.29226 34.9382C9.74119 34.9382 10.1054 35.2889 10.1054 35.7211V43.0171C10.1054 43.4494 9.74119 43.8 9.29226 43.8C8.84333 43.8 8.47913 43.4494 8.47913 43.0171V35.7211C8.47913 35.2889 8.84333 34.9382 9.29226 34.9382Z" fill="white"/>
</mask>
<g mask="url(#mask9_2_40)">
<path d="M8.47913 34.9382H10.1054V43.8H8.47913V34.9382Z" fill="white"/>
</g>
<mask id="mask10_2_40" style="mask-type:luminance" maskUnits="userSpaceOnUse" x="10" y="42" width="68" height="2">
<path d="M77.1209 42.2344V43.2097C77.1209 43.5907 76.8007 43.8997 76.4043 43.8997H10.6023V42.2344H77.1209Z" fill="white"/>
</mask>
<g mask="url(#mask10_2_40)">
<path d="M10.6023 42.2344H77.1209V43.8997H10.6023V42.2344Z" fill="white"/>
</g>
<mask id="mask11_2_40" style="mask-type:luminance" maskUnits="userSpaceOnUse" x="36" y="28" width="12" height="15">
<path d="M47.0426 28.3151V42.2341H36.3599V28.3151H47.0426Z" fill="white"/>
</mask>
<g mask="url(#mask11_2_40)">
<path d="M36.3599 28.3151H47.0426V42.2341H36.3599V28.3151Z" fill="white"/>
</g>
<mask id="mask12_2_40" style="mask-type:luminance" maskUnits="userSpaceOnUse" x="42" y="0" width="38" height="44">
<path d="M61.4746 0.933716C61.7779 0.933716 62.071 1.0399 62.2996 1.23252L79.5231 15.7979C79.9889 16.1917 79.6992 16.931 79.0791 16.931H77.1074V43.0169H58.3745V17.7139H60.6191C60.9562 17.7139 61.2594 17.512 61.3797 17.207C61.4983 16.9022 61.4102 16.558 61.1544 16.3429L42.9332 0.933716H61.4746Z" fill="white"/>
</mask>
<g mask="url(#mask12_2_40)">
<path d="M42.9332 0.933716H79.7528V43.0169H42.9332V0.933716Z" fill="white"/>
</g>
<mask id="mask13_2_40" style="mask-type:luminance" maskUnits="userSpaceOnUse" x="24" y="1" width="35" height="43">
<path d="M41.1018 1.45593C41.1222 1.47812 41.1409 1.5016 41.1645 1.52199L58.4607 16.1482H55.0845C54.6356 16.1482 54.2713 16.4987 54.2713 16.9311C54.2713 17.3635 54.6356 17.714 55.0845 17.714H56.7327V43.0171H48.6692V27.5323C48.6692 27.0998 48.305 26.7494 47.856 26.7494H35.5471C35.0981 26.7494 34.7339 27.0998 34.7339 27.5323V43.0171H26.5397V16.9311H25.0692C24.4475 16.9311 24.1546 16.1949 24.6135 15.7945L41.1018 1.45593ZM51.7387 20.7764C51.2897 20.7764 50.9255 21.1268 50.9255 21.5593V23.5572C50.9255 23.9897 51.2897 24.3401 51.7387 24.3401C52.1878 24.3401 52.5519 23.9897 52.5519 23.5572V21.5593C52.5519 21.1268 52.1878 20.7764 51.7387 20.7764ZM41.7014 20.7764C41.2526 20.7764 40.8884 21.1268 40.8884 21.5593V23.5572C40.8884 23.9897 41.2526 24.3401 41.7014 24.3401C42.1504 24.3401 42.5146 23.9897 42.5146 23.5572V21.5593C42.5146 21.1268 42.1504 20.7764 41.7014 20.7764ZM31.6643 20.7764C31.2153 20.7764 30.8511 21.1268 30.8511 21.5593V23.5572C30.8511 23.9897 31.2153 24.3401 31.6643 24.3401C32.1131 24.3401 32.4775 23.9897 32.4775 23.5572V21.5593C32.4775 21.1268 32.1131 20.7764 31.6643 20.7764ZM49.1129 16.1482H34.2901C33.8411 16.1482 33.4769 16.4987 33.4769 16.9311C33.4769 17.3635 33.8411 17.714 34.2901 17.714H49.1129C49.5619 17.714 49.9261 17.3635 49.9261 16.9311C49.9261 16.4987 49.5619 16.1482 49.1129 16.1482ZM41.7014 8.1698C41.2526 8.1698 40.8884 8.52032 40.8884 8.95271V12.2827C40.8884 12.715 41.2526 13.0656 41.7014 13.0656C42.1504 13.0656 42.5146 12.715 42.5146 12.2827V8.95271C42.5146 8.52032 42.1504 8.1698 41.7014 8.1698Z" fill="white"/>
</mask>
<g mask="url(#mask13_2_40)">
<path d="M24.3895 1.45593H58.4606V43.0171H24.3895V1.45593Z" fill="white"/>
</g>
</svg>
