<svg width="80" height="80" viewBox="0 0 80 80" fill="none" xmlns="http://www.w3.org/2000/svg">
<path d="M25.172 16.9287H8.69247C7.78281 16.9287 7.04453 16.1904 7.04453 15.2808C7.04453 14.3711 7.78281 13.6328 8.69247 13.6328H25.172C26.0816 13.6328 26.8199 14.3711 26.8199 15.2808C26.8199 16.1904 26.085 16.9287 25.172 16.9287Z" fill="white"/>
<path d="M26.8199 30.1123H7.04452C6.13486 30.1123 5.39658 29.374 5.39658 28.4644C5.39658 27.5547 6.13486 26.8164 7.04452 26.8164H26.8199C27.7296 26.8164 28.4679 27.5547 28.4679 28.4644C28.4679 29.374 27.7329 30.1123 26.8199 30.1123Z" fill="white"/>
<path d="M28.4679 43.2959H5.39658C4.48691 43.2959 3.74863 42.5576 3.74863 41.6479C3.74863 40.7383 4.48691 40 5.39658 40H28.4679C29.3775 40 30.1158 40.7383 30.1158 41.6479C30.1158 42.5576 29.3809 43.2959 28.4679 43.2959Z" fill="white"/>
<path d="M31.7638 79.5508C31.7573 79.5508 31.7506 79.5508 31.7472 79.5508H2.10068C1.63925 79.5508 1.19769 79.3564 0.884447 79.0168C0.571381 78.674 0.416341 78.2224 0.459232 77.761L7.05103 1.95531C7.12363 1.10172 7.83888 0.449219 8.69247 0.449219H25.172C26.0256 0.449219 26.7408 1.10172 26.8134 1.95549L31.141 51.7169L43.8533 40.4152C44.3377 39.9835 45.0331 39.8812 45.6232 40.1448C46.2165 40.4119 46.5955 40.9984 46.5955 41.6478V51.4036L60.3954 40.3591C60.8897 39.9636 61.5687 39.891 62.1389 40.1647C62.7092 40.4382 63.0716 41.015 63.0716 41.648V51.4038L76.8715 40.3593C77.3692 39.9638 78.0449 39.8912 78.6151 40.1649C79.1853 40.4384 79.5478 41.0151 79.5478 41.6481V77.903C79.5478 78.8127 78.8095 79.551 77.8998 79.551H31.7803C31.7736 79.5508 31.7703 79.5508 31.7638 79.5508ZM33.2765 76.2549H76.2616V45.0757L62.4583 56.1202C61.964 56.5157 61.2883 56.5915 60.7148 56.3146C60.1445 56.0411 59.7821 55.4644 59.7821 54.8314V45.0755L45.9788 56.12C45.4845 56.5155 44.8088 56.5913 44.2353 56.3144C43.665 56.0409 43.3026 55.4642 43.3026 54.8312V45.316L31.4999 55.8101L33.2765 76.2549ZM3.90015 76.2549H29.9675L28.2502 56.4795H5.61736L3.90015 76.2549ZM5.9074 53.1836H27.9602L23.6624 3.74512H10.2052L5.9074 53.1836Z" fill="white"/>
</svg>
