<svg width="589" height="464" viewBox="0 0 589 464" fill="none" xmlns="http://www.w3.org/2000/svg">
<path d="M129.347 47.5666L99.2478 91.1152L94.0584 88.6526L124.157 45.2336L129.347 47.6962V47.5666ZM96.1342 68.952C90.2961 68.952 86.1445 64.4157 86.1445 58.0649C86.1445 51.7141 90.2961 46.7889 96.1342 46.7889C101.972 46.7889 106.124 51.3252 106.124 57.6761C106.124 64.0269 101.972 68.952 96.1342 68.952ZM96.1342 64.1565C98.9884 64.1565 100.934 61.5643 100.934 57.8057C100.934 54.047 98.9884 51.5844 96.2639 51.5844C93.5395 51.5844 91.4637 54.1766 91.4637 57.9353C91.4637 61.6939 93.4097 64.1565 96.1342 64.1565ZM126.882 90.3375C120.914 90.3375 116.892 85.8012 116.892 79.3208C116.892 72.8403 121.043 68.0448 126.882 68.1744C132.72 68.1744 136.871 72.7107 136.871 79.0615C136.871 85.4124 132.72 90.3375 126.882 90.3375ZM126.882 85.4124C129.736 85.4124 131.682 82.8202 131.682 79.0615C131.682 75.3029 129.736 72.8403 127.011 72.8403C124.287 72.8403 122.211 75.4325 122.211 79.1912C122.211 82.9498 124.157 85.4124 127.011 85.4124H126.882ZM203.296 26.9587C203.296 55.7319 164.375 55.7319 160.743 75.9509H201.739V89.4303H143.877V81.2649C143.877 47.9554 188.247 49.5107 188.247 27.4772C188.247 5.44367 182.668 13.8682 174.105 13.8682C165.543 13.8682 157.888 19.9599 157.629 31.1062H141.931C143.358 11.4057 156.721 0.388916 174.365 0.388916C192.009 0.388916 203.555 11.1465 203.555 26.8291L203.296 26.9587ZM244.163 91.2448C223.405 91.2448 209.523 73.3587 209.523 45.6224C209.523 17.8861 223.016 0.388916 244.163 0.388916C265.31 0.388916 278.672 18.0157 278.672 45.4928C278.672 72.9699 265.18 91.1152 244.163 91.1152V91.2448ZM244.163 77.3766C255.969 77.3766 263.623 64.9342 263.623 45.4928C263.623 26.0515 255.969 13.9979 244.163 13.9979C232.357 13.9979 224.573 26.3107 224.573 45.4928C224.573 64.6749 232.227 77.3766 244.163 77.3766Z" fill="#002B04"/>
<mask id="mask0_22_128" style="mask-type:luminance" maskUnits="userSpaceOnUse" x="300" y="186" width="198" height="202">
<path d="M497.666 186.896H300.598V387.79H497.666V186.896Z" fill="white"/>
</mask>
<g mask="url(#mask0_22_128)">
<path d="M395.694 199.209C395.694 198.431 395.045 197.913 394.396 197.913C342.502 198.561 300.598 240.813 300.598 292.916C300.598 345.019 343.151 387.92 395.694 387.92C448.237 387.92 490.141 346.056 490.79 294.212C490.79 293.435 490.271 292.916 489.493 292.916H396.991C396.213 292.916 395.694 292.398 395.694 291.62V199.209Z" fill="#007E4E"/>
<path d="M401.402 276.197C400.883 277.493 398.937 277.233 398.937 275.678V189.099C398.937 188.322 399.456 187.803 400.234 187.803C411.262 187.933 421.771 190.007 431.501 193.506C432.149 193.765 432.539 194.543 432.279 195.191L401.402 276.197Z" fill="#003D23"/>
<path d="M399.586 287.732C399.197 288.639 399.845 289.546 400.754 289.546H490.012C490.79 289.546 491.309 288.898 491.309 288.25C490.79 249.497 467.697 216.317 434.744 202.06C434.096 201.801 433.317 202.06 433.058 202.708L399.456 287.732H399.586Z" fill="#00E997"/>
</g>
<path d="M324.988 55.7319C326.779 55.7319 328.231 54.2812 328.231 52.4917C328.231 50.7022 326.779 49.2515 324.988 49.2515C323.197 49.2515 321.745 50.7022 321.745 52.4917C321.745 54.2812 323.197 55.7319 324.988 55.7319Z" fill="black"/>
<path d="M417.749 51.8435H323.042V53.1396H417.749V51.8435Z" fill="black"/>
<path d="M419.046 51.8435H417.749V190.525H419.046V51.8435Z" fill="black"/>
</svg>
